<svg xmlns="http://www.w3.org/2000/svg" viewBox="0 0 512 512">
  <defs>
    <linearGradient id="grad" x1="0%" y1="0%" x2="100%" y2="100%">
      <stop offset="0%" style="stop-color:#4facfe;stop-opacity:1" />
      <stop offset="100%" style="stop-color:#00f2fe;stop-opacity:1" />
    </linearGradient>
  </defs>
  <path d="M256,16C256,16 96,160 96,320C96,408.366 167.634,480 256,480C344.366,480 416,408.366 416,320C416,160 256,16 256,16Z" fill="url(#grad)" />
  <path d="M304,192 L315,221 L344,232 L315,243 L304,272 L293,243 L264,232 L293,221 Z" fill="#ffffff" />
  <path d="M208,304 L213.5,318.5 L228,324 L213.5,329.5 L208,344 L202.5,329.5 L188,324 L202.5,318.5 Z" fill="#ffffff" />
</svg>
